<svg width="108" height="108" viewBox="0 0 108 108" xmlns="http://www.w3.org/2000/svg">
<g clip-path="url(#clip0_5_47)">
<path d="M54.6644 48.4102C54.5855 48.3093 54.4846 48.2278 54.3695 48.1717C54.2544 48.1156 54.128 48.0864 53.9999 48.0864C53.8719 48.0864 53.7455 48.1156 53.6304 48.1717C53.5153 48.2278 53.4144 48.3093 53.3355 48.4102L41.523 63.3551C41.4256 63.4794 41.3652 63.6287 41.3486 63.7858C41.3321 63.9428 41.3601 64.1014 41.4294 64.2433C41.4987 64.3853 41.6065 64.5048 41.7406 64.5883C41.8746 64.6719 42.0295 64.716 42.1874 64.7156H49.9816V90.2813C49.9816 90.7453 50.3613 91.125 50.8253 91.125H57.1535C57.6175 91.125 57.9972 90.7453 57.9972 90.2813V64.7262H65.8124C66.5191 64.7262 66.9093 63.9141 66.4769 63.3656L54.6644 48.4102Z" />
<path d="M85.5773 38.6754C80.7469 25.9348 68.4387 16.875 54.0211 16.875C39.6035 16.875 27.2953 25.9242 22.4648 38.6648C13.4262 41.0379 6.75 49.275 6.75 59.0625C6.75 70.7168 16.1895 80.1562 27.8332 80.1562H32.0625C32.5266 80.1562 32.9062 79.7766 32.9062 79.3125V72.9844C32.9062 72.5203 32.5266 72.1406 32.0625 72.1406H27.8332C24.2789 72.1406 20.9355 70.7273 18.4465 68.1645C15.968 65.6121 14.6496 62.1738 14.7656 58.609C14.8605 55.8246 15.8098 53.209 17.5289 51.0047C19.2902 48.7582 21.7582 47.1234 24.5004 46.3957L28.4977 45.3516L29.9637 41.4914C30.8707 39.0867 32.1363 36.8402 33.7289 34.8047C35.3011 32.7872 37.1635 31.0136 39.2555 29.5418C43.5902 26.4938 48.6949 24.8801 54.0211 24.8801C59.3473 24.8801 64.452 26.4938 68.7867 29.5418C70.8856 31.0184 72.7418 32.7902 74.3133 34.8047C75.9059 36.8402 77.1715 39.0973 78.0785 41.4914L79.534 45.341L83.5207 46.3957C89.2371 47.9355 93.2344 53.1352 93.2344 59.0625C93.2344 62.5535 91.8738 65.8441 89.4059 68.3121C88.1955 69.5295 86.7558 70.4947 85.1699 71.1519C83.584 71.8091 81.8835 72.1451 80.1668 72.1406H75.9375C75.4734 72.1406 75.0938 72.5203 75.0938 72.9844V79.3125C75.0938 79.7766 75.4734 80.1562 75.9375 80.1562H80.1668C91.8105 80.1562 101.25 70.7168 101.25 59.0625C101.25 49.2855 94.5949 41.059 85.5773 38.6754Z"/>
</g>
<defs>
<clipPath id="clip0_5_47">
<rect width="108" height="108"/>
</clipPath>
</defs>
</svg>
