<svg width="102" height="102" viewBox="0 0 102 102" fill="none" xmlns="http://www.w3.org/2000/svg">
<path d="M53.25 79.8618V85H61.75V93.5H36.25V85H44.75V77.1588C39.8817 75.0526 35.4538 72.0478 31.6983 68.3018C15.1318 51.7353 15.1318 24.769 31.6983 8.19403L37.7078 14.2035C24.452 27.4635 24.452 49.0323 37.7078 62.288C50.9635 75.5395 72.5365 75.548 85.7923 62.288L91.8018 68.2975C87.8576 72.2457 83.1725 75.3759 78.0154 77.5084C72.8582 79.641 67.3307 80.734 61.75 80.7245C58.8949 80.7238 56.0471 80.4347 53.25 79.8618V79.8618Z" fill="white"/>
<path d="M87.25 38.25C87.25 52.3133 75.8132 63.75 61.75 63.75C47.6867 63.75 36.25 52.3133 36.25 38.25C36.25 24.1868 47.6867 12.75 61.75 12.75C75.8132 12.75 87.25 24.1868 87.25 38.25ZM44.75 38.25C44.75 47.6255 52.3745 55.25 61.75 55.25C71.1255 55.25 78.75 47.6255 78.75 38.25C78.75 28.8745 71.1255 21.25 61.75 21.25C52.3745 21.25 44.75 28.8745 44.75 38.25Z" fill="white"/>
</svg>
