<svg width="38" height="38" viewBox="0 0 38 38" fill="none" xmlns="http://www.w3.org/2000/svg">
<circle cx="19" cy="19" r="19" fill="#1E2125"/>
<path d="M19 38C29.4934 38 38 29.4934 38 19C38 8.50659 29.4934 0 19 0C8.50659 0 0 8.50659 0 19C0 29.4934 8.50659 38 19 38ZM20.4542 29.0566L19.6378 25.2969C22.03 24.7674 24.2297 24.0788 24.0515 21.4075H21.2405V11.4018H29.7084V20.7534C29.7054 28.1853 24.249 28.79 20.4542 29.0566ZM9.11034 29.0566L8.29163 25.2969C10.6838 24.7674 12.8835 24.0788 12.7053 21.4075H9.89428V11.4018H18.3622V20.7534C18.3592 28.1853 12.9051 28.79 9.11034 29.0566Z" fill="#0057FF"/>
</svg>
