<svg width="102" height="102" viewBox="0 0 102 102" fill="none" xmlns="http://www.w3.org/2000/svg">
<g clip-path="url(#clip0_5_50)">
<path d="M0 25.5C0 25.5 0 12.75 12.75 12.75H89.25C89.25 12.75 102 12.75 102 25.5V63.75C102 63.75 102 76.5 89.25 76.5H63.75C63.75 80.7521 64.2791 83.9396 65.3438 86.0625H70.125C70.9704 86.0625 71.7811 86.3983 72.3789 86.9961C72.9767 87.5939 73.3125 88.4046 73.3125 89.25C73.3125 90.0954 72.9767 90.9061 72.3789 91.5039C71.7811 92.1017 70.9704 92.4375 70.125 92.4375H31.875C31.0296 92.4375 30.2189 92.1017 29.6211 91.5039C29.0233 90.9061 28.6875 90.0954 28.6875 89.25C28.6875 88.4046 29.0233 87.5939 29.6211 86.9961C30.2189 86.3983 31.0296 86.0625 31.875 86.0625H36.6562C37.7209 83.9396 38.25 80.7521 38.25 76.5H12.75C12.75 76.5 0 76.5 0 63.75V25.5ZM8.91225 20.0494C8.21199 20.5369 7.65331 21.2012 7.293 21.9746C6.74959 23.0974 6.43741 24.3179 6.375 25.5638V63.75C6.375 65.8219 6.87225 66.9503 7.29937 67.5878C7.74562 68.2571 8.38313 68.7862 9.22463 69.207C10.299 69.7274 11.4633 70.0369 12.6544 70.1186L12.8137 70.125H89.25C91.3219 70.125 92.4503 69.6277 93.0878 69.2006C93.788 68.7131 94.3467 68.0488 94.707 67.2754C95.2274 66.201 95.5369 65.0367 95.6186 63.8456L95.625 63.6862V25.5C95.625 23.4281 95.1277 22.2998 94.7006 21.6623C94.2133 20.9618 93.549 20.403 92.7754 20.043C91.6526 19.4996 90.4321 19.1874 89.1862 19.125H12.75C10.6781 19.125 9.54975 19.6222 8.91225 20.0494V20.0494Z" fill="#0057FF"/>
<path d="M50.6812 35.7797C50.6812 35.3781 50.8407 34.993 51.1247 34.7091C51.4086 34.4251 51.7937 34.2656 52.1953 34.2656H64.3078C64.7093 34.2656 65.0944 34.4251 65.3784 34.7091C65.6623 34.993 65.8218 35.3781 65.8218 35.7797V47.8922C65.8218 48.2937 65.6623 48.6789 65.3784 48.9628C65.0944 49.2467 64.7093 49.4063 64.3078 49.4063C63.9062 49.4063 63.5211 49.2467 63.2372 48.9628C62.9532 48.6789 62.7937 48.2937 62.7937 47.8922V39.4346L48.725 53.5063C48.5844 53.6473 48.4173 53.7592 48.2334 53.8355C48.0494 53.9119 47.8522 53.9511 47.6531 53.9511C47.4539 53.9511 47.2567 53.9119 47.0728 53.8355C46.8889 53.7592 46.7218 53.6473 46.5811 53.5063L41.5968 48.519L32.0704 58.0485C31.7861 58.3328 31.4005 58.4925 30.9984 58.4925C30.5963 58.4925 30.2107 58.3328 29.9264 58.0485C29.6421 57.7642 29.4824 57.3786 29.4824 56.9766C29.4824 56.5745 29.6421 56.1889 29.9264 55.9046L40.5249 45.3062C40.6655 45.1652 40.8326 45.0533 41.0165 44.977C41.2005 44.9006 41.3977 44.8614 41.5968 44.8614C41.796 44.8614 41.9932 44.9006 42.1771 44.977C42.3611 45.0533 42.5281 45.1652 42.6688 45.3062L47.6531 50.2935L60.6528 37.2938H52.1953C51.7937 37.2938 51.4086 37.1342 51.1247 36.8503C50.8407 36.5663 50.6812 36.1812 50.6812 35.7797Z" fill="#0057FF"/>
</g>
<defs>
<clipPath id="clip0_5_50">
<rect width="102" height="102" fill="white"/>
</clipPath>
</defs>
</svg>
