<svg width="68" height="68" viewBox="0 0 68 68" fill="none" xmlns="http://www.w3.org/2000/svg">
<path fill-rule="evenodd" clip-rule="evenodd" d="M34 0C15.2227 0 0 15.2227 0 34C0 52.7773 15.2227 68 34 68C52.7773 68 68 52.7773 68 34C68 15.2227 52.7773 0 34 0ZM23.8216 40.8216C23.2387 41.3847 22.4579 41.6962 21.6475 41.6892C20.8371 41.6821 20.0618 41.3571 19.4887 40.784C18.9157 40.2109 18.5906 39.4357 18.5836 38.6252C18.5765 37.8148 18.8881 37.034 19.4511 36.4511L31.8147 24.0875C32.3944 23.508 33.1804 23.1825 34 23.1825C34.8196 23.1825 35.6056 23.508 36.1853 24.0875L48.5489 36.4511C49.1119 37.034 49.4235 37.8148 49.4164 38.6252C49.4094 39.4357 49.0843 40.2109 48.5113 40.784C47.9382 41.3571 47.1629 41.6821 46.3525 41.6892C45.5421 41.6962 44.7613 41.3847 44.1784 40.8216L34 30.6433L23.8216 40.8216Z" fill="#0057FF"/>
</svg>
