<svg viewBox="0 0 108 108" xmlns="http://www.w3.org/2000/svg" xmlns:xlink="http://www.w3.org/1999/xlink"><style>:root&gt;svg{display:none}:root&gt;svg:target{display:block}</style><svg fill="none" viewBox="0 0 34 34" id="border-ball" xmlns="http://www.w3.org/2000/svg"><circle cx="17" cy="17" r="16.5" stroke="#747475" stroke-linecap="round" stroke-linejoin="round" stroke-dasharray="9 10"/></svg><svg viewBox="0 0 108 108" id="cloud" xmlns="http://www.w3.org/2000/svg"><g clip-path="url(#bclip0_5_47)"><path d="M54.664 48.41a.843.843 0 00-1.328 0L41.523 63.355a.842.842 0 00.664 1.36h7.795v25.566c0 .464.38.844.843.844h6.328c.465 0 .844-.38.844-.844V64.726h7.815a.842.842 0 00.665-1.36L54.664 48.41z"/><path d="M85.577 38.675c-4.83-12.74-17.138-21.8-31.556-21.8s-26.726 9.05-31.556 21.79C13.426 41.038 6.75 49.275 6.75 59.063c0 11.654 9.44 21.093 21.083 21.093h4.23c.464 0 .843-.38.843-.844v-6.328a.846.846 0 00-.843-.843h-4.23a13.002 13.002 0 01-9.386-3.977 13.072 13.072 0 01-3.681-9.555 12.975 12.975 0 012.763-7.604 13.217 13.217 0 016.971-4.61l3.998-1.043 1.466-3.86a25.359 25.359 0 013.765-6.687 25.901 25.901 0 015.526-5.263 25.536 25.536 0 0114.766-4.662 25.538 25.538 0 0114.766 4.662 25.915 25.915 0 015.526 5.263 25.527 25.527 0 013.766 6.686l1.455 3.85 3.987 1.055c5.716 1.54 9.713 6.74 9.713 12.666 0 3.492-1.36 6.782-3.828 9.25a12.981 12.981 0 01-9.24 3.829h-4.228a.846.846 0 00-.844.843v6.329c0 .464.38.843.844.843h4.229c11.644 0 21.083-9.44 21.083-21.094 0-9.776-6.655-18.003-15.673-20.387z"/></g><defs><clipPath id="bclip0_5_47"><path d="M0 0h108v108H0z"/></clipPath></defs></svg><svg fill="none" viewBox="0 0 102 102" id="globe" xmlns="http://www.w3.org/2000/svg"><path d="M53.25 79.862V85h8.5v8.5h-25.5V85h8.5v-7.841a42.22 42.22 0 01-13.052-8.857c-16.566-16.567-16.566-43.533 0-60.108l6.01 6.01c-13.256 13.26-13.256 34.828 0 48.084 13.256 13.252 34.829 13.26 48.084 0l6.01 6.01A42.376 42.376 0 0161.75 80.725a42.429 42.429 0 01-8.5-.863z" fill="#fff"/><path d="M87.25 38.25c0 14.063-11.437 25.5-25.5 25.5s-25.5-11.437-25.5-25.5 11.437-25.5 25.5-25.5 25.5 11.437 25.5 25.5zm-42.5 0c0 9.376 7.624 17 17 17 9.376 0 17-7.624 17-17 0-9.375-7.624-17-17-17-9.376 0-17 7.625-17 17z" fill="#fff"/></svg><svg fill="none" viewBox="0 0 38 38" id="marks" xmlns="http://www.w3.org/2000/svg"><circle cx="19" cy="19" r="19" fill="#1E2125"/><path d="M19 38c10.493 0 19-8.507 19-19S29.493 0 19 0 0 8.507 0 19s8.507 19 19 19zm1.454-8.943l-.816-3.76c2.392-.53 4.592-1.218 4.413-3.89h-2.81V11.402h8.467v9.351c-.003 7.432-5.459 8.037-9.254 8.304zm-11.344 0l-.818-3.76c2.392-.53 4.591-1.218 4.413-3.89h-2.81V11.402h8.467v9.351c-.003 7.432-5.457 8.037-9.252 8.304z" fill="#0057FF"/></svg><svg fill="none" viewBox="0 0 102 102" id="monitor" xmlns="http://www.w3.org/2000/svg"><g clip-path="url(#eclip0_5_50)" fill="#0057FF"><path d="M0 25.5s0-12.75 12.75-12.75h76.5S102 12.75 102 25.5v38.25s0 12.75-12.75 12.75h-25.5c0 4.252.53 7.44 1.594 9.563h4.781a3.187 3.187 0 110 6.374h-38.25a3.187 3.187 0 110-6.374h4.781c1.065-2.123 1.594-5.31 1.594-9.563h-25.5S0 76.5 0 63.75V25.5zm8.912-5.45a4.832 4.832 0 00-1.619 1.925 9.308 9.308 0 00-.918 3.589V63.75c0 2.072.497 3.2.924 3.838.447.67 1.084 1.198 1.926 1.619 1.074.52 2.238.83 3.43.912l.159.006H89.25c2.072 0 3.2-.497 3.838-.924a4.833 4.833 0 001.619-1.926c.52-1.074.83-2.238.912-3.43l.006-.159V25.5c0-2.072-.497-3.2-.924-3.838a4.825 4.825 0 00-1.926-1.619 9.308 9.308 0 00-3.589-.918H12.75c-2.072 0-3.2.497-3.838.924z"/><path d="M50.681 35.78a1.514 1.514 0 011.514-1.514h12.113a1.514 1.514 0 011.514 1.514v12.112a1.514 1.514 0 11-3.028 0v-8.457L48.725 53.506a1.513 1.513 0 01-2.144 0l-4.984-4.987-9.527 9.53a1.516 1.516 0 01-2.144-2.144l10.599-10.599a1.513 1.513 0 012.144 0l4.984 4.988 13-13h-8.458a1.514 1.514 0 01-1.514-1.514z"/></g><defs><clipPath id="eclip0_5_50"><path fill="#fff" d="M0 0h102v102H0z"/></clipPath></defs></svg><svg fill="none" viewBox="0 0 8 15" id="right-arrow" xmlns="http://www.w3.org/2000/svg"><path d="M1.17 15a1 1 0 00.78-.37l4.83-6a1 1 0 000-1.27l-5-6A1.001 1.001 0 10.24 2.64L4.71 8 .39 13.36A1 1 0 001.17 15z" fill="#000"/></svg><svg fill="none" viewBox="0 0 68 68" id="to-top" xmlns="http://www.w3.org/2000/svg"><path fill-rule="evenodd" clip-rule="evenodd" d="M34 0C15.223 0 0 15.223 0 34s15.223 34 34 34 34-15.223 34-34S52.777 0 34 0zM23.822 40.822a3.09 3.09 0 01-4.37-4.37l12.363-12.364a3.09 3.09 0 014.37 0L48.55 36.45a3.09 3.09 0 01-4.37 4.37L34 30.644 23.822 40.822z" fill="#0057FF"/></svg></svg>